<svg width="41" height="54" viewBox="0 0 41 54" fill="none" xmlns="http://www.w3.org/2000/svg">
<g clip-path="url(#clip0_0_1145)">
<path d="M24.6953 5.09658C24.3445 4.40428 23.7822 3.84186 23.0899 3.49108C22.7412 3.31584 22.3696 3.19041 21.9861 3.11848C21.5921 3.04684 21.193 3.00728 20.7927 3.00018C20.4251 2.98878 19.938 3.00018 19.5511 3.00018H6.82738C6.66238 3.00018 6.49978 3.00018 6.33838 3.00068C5.72554 2.98281 5.11238 3.02225 4.50688 3.11848C4.12328 3.19048 3.75166 3.3159 3.40288 3.49108C2.71091 3.84217 2.14875 4.40451 1.79788 5.09658C1.62276 5.44525 1.49734 5.81672 1.42528 6.20018C1.3649 6.52419 1.32814 6.85215 1.31528 7.18148C1.29968 7.50668 1.29768 7.85918 1.29718 8.19428V8.63518V44.3512C1.29718 44.5001 1.29718 44.647 1.29718 44.7921C1.29718 45.1272 1.29968 45.4797 1.31528 45.805C1.32815 46.1343 1.36492 46.4623 1.42528 46.7863C1.49734 47.1698 1.62276 47.5414 1.79788 47.8902C2.14881 48.5824 2.71113 49.1448 3.40328 49.4958C3.75206 49.6709 4.12368 49.7963 4.50728 49.8683C4.90122 49.94 5.30033 49.9796 5.70068 49.9868C6.06808 49.9982 6.55538 49.9968 6.94238 49.9968C11.6634 49.9968 13.288 50.0002 18.0089 50.0002C17.8906 49.9002 17.7889 49.7617 17.6389 49.6379C17.4416 49.4326 17.2629 49.2102 17.1048 48.9734C16.9123 48.6931 16.7618 48.3863 16.6581 48.0625C16.5532 47.7302 16.4721 47.3908 16.4154 47.047C16.3595 46.7495 16.3257 46.4482 16.3143 46.1457C16.2996 45.8468 16.2977 45.5233 16.2972 45.2157C16.2972 45.081 16.2972 44.9451 16.2972 44.8071V11.1934C16.2972 11.0554 16.2972 10.9196 16.2972 10.785C16.2972 10.4772 16.2996 10.1536 16.3143 9.85498C16.326 9.55246 16.3598 9.25119 16.4154 8.95358C16.4815 8.60074 16.5969 8.25894 16.7581 7.93818C17.0808 7.30138 17.5981 6.78403 18.2349 6.46128C18.5557 6.30009 18.8976 6.18473 19.2506 6.11858C19.8018 6.02745 20.3603 5.98811 20.9188 6.00108C21.0799 6.00018 21.2429 6.00018 21.4085 6.00018H25.162M11.6319 9.68098C11.6319 9.94488 11.6319 10.1286 11.6314 10.2822C11.6309 10.4332 11.6294 10.5583 11.6255 10.6732C11.6204 10.8983 11.5951 11.1226 11.5498 11.3432C11.5016 11.5735 11.4216 11.796 11.3123 12.0044C11.085 12.4355 10.7326 12.7879 10.3015 13.0152C10.0931 13.1244 9.87062 13.2043 9.64038 13.2528C9.41976 13.298 9.19553 13.3233 8.97038 13.3284C8.85538 13.3324 8.73038 13.3338 8.57928 13.3342C8.42568 13.3349 8.24188 13.3348 7.97798 13.3348H6.61618C6.35228 13.3348 6.16848 13.3348 6.01488 13.3342C5.86378 13.3342 5.73878 13.3324 5.62378 13.3284C5.39863 13.3233 5.1744 13.298 4.95378 13.2528C4.72354 13.2043 4.50108 13.1244 4.29268 13.0152C3.86152 12.7879 3.50917 12.4355 3.28188 12.0044C3.17254 11.796 3.09261 11.5735 3.04438 11.3432C2.99908 11.1226 2.97374 10.8983 2.96868 10.6732C2.96478 10.5583 2.96328 10.4332 2.96278 10.2822C2.96228 10.1285 2.96228 9.94488 2.96228 9.68098V8.31938C2.96228 8.05538 2.96228 7.87178 2.96278 7.71818C2.96278 7.56698 2.96478 7.44188 2.96868 7.32708C2.97375 7.10193 2.99908 6.87769 3.04438 6.65708C3.09276 6.42681 3.17268 6.20431 3.28188 5.99588C3.50908 5.56469 3.86127 5.21222 4.29228 4.98468C4.50068 4.87548 4.72314 4.79553 4.95338 4.74708C5.174 4.70187 5.39823 4.67657 5.62338 4.67148C5.73838 4.66748 5.86338 4.66618 6.01448 4.66558H6.61578H7.97758H8.57888C8.72998 4.66618 8.85498 4.66748 8.96978 4.67148C9.19513 4.67653 9.41956 4.70183 9.64038 4.74708C9.87062 4.79553 10.0931 4.87548 10.3015 4.98468C10.7326 5.21205 11.0849 5.56438 11.3123 5.99548C11.4216 6.20386 11.5015 6.42637 11.5498 6.65668C11.5951 6.87729 11.6204 7.10153 11.6255 7.32668C11.6294 7.44158 11.6309 7.56668 11.6314 7.71778C11.6319 7.87148 11.6319 8.05508 11.6319 8.31898V9.68098ZM36.2969 24.3082V45.6921C36.2624 46.0693 36.0811 46.4178 35.792 46.6625C35.5029 46.9073 35.1292 47.0285 34.7515 47.0002H21.8423C21.4646 47.0285 21.0909 46.9073 20.8018 46.6625C20.5127 46.4178 20.3313 46.0693 20.2969 45.6921V24.3133C20.3314 23.9347 20.5134 23.5848 20.8035 23.3392C21.0937 23.0935 21.4688 22.9718 21.8479 23.0002H34.7517C35.1294 22.9718 35.503 23.0931 35.7921 23.3378C36.0812 23.5825 36.2625 23.931 36.2969 24.3082ZM39.2969 11.8216C39.2964 11.5138 39.2947 11.1902 39.2803 10.8916C39.2683 10.5891 39.2344 10.2878 39.1789 9.99018C39.1127 9.63734 38.9974 9.29554 38.8362 8.97478C38.5133 8.33814 37.996 7.82088 37.3594 7.49798C37.0385 7.33669 36.6966 7.22129 36.3437 7.15518C35.9814 7.08917 35.6143 7.05271 35.2461 7.04618C34.9079 7.03618 34.4597 7.03698 34.1037 7.03698H22.3837C22.2181 7.03698 22.0551 7.03698 21.8937 7.03778C21.3352 7.02473 20.7767 7.06404 20.2255 7.15518C19.8725 7.22132 19.5306 7.33671 19.2098 7.49798C18.573 7.82058 18.0556 8.33784 17.7329 8.97458C17.5717 9.2954 17.4563 9.63727 17.3902 9.99018C17.3346 10.2878 17.3008 10.5891 17.2891 10.8916C17.2744 11.1904 17.2976 11.514 17.2971 11.8216V12.2301V44.8069V45.2155C17.2971 45.5233 17.2744 45.8468 17.2891 46.1455C17.3008 46.448 17.3346 46.7492 17.3902 47.0468C17.4563 47.3997 17.5717 47.7415 17.7329 48.0623C18.0556 48.6991 18.5729 49.2164 19.2097 49.5392C19.5306 49.7003 19.8725 49.8156 20.2254 49.8819C20.5878 49.9479 20.955 49.9844 21.3233 49.9908C21.6612 50.0013 22.1094 49.9999 22.4654 49.9999H34.1854H34.6754C35.2338 50.0128 35.7922 49.9735 36.3433 49.8824C36.6962 49.8162 37.0381 49.7008 37.359 49.5397C37.9956 49.2167 38.5128 48.6994 38.8358 48.0628C38.997 47.742 39.1124 47.4002 39.1785 47.0473C39.234 46.7497 39.2679 46.4485 39.2799 46.146C39.2943 45.8471 39.296 45.5236 39.2965 45.216C39.2965 45.0813 39.2965 44.9454 39.2965 44.8074V12.2302C39.2969 12.0921 39.2969 11.9563 39.2969 11.8216ZM18.9612 11.705C18.9619 11.5544 18.9631 11.4297 18.967 11.315C18.972 11.0905 18.9972 10.867 19.0422 10.6471C19.0907 10.4177 19.1704 10.196 19.2793 9.98828C19.5055 9.55884 19.8564 9.20794 20.2859 8.98178C20.4935 8.87296 20.7152 8.79327 20.9446 8.74498C21.1645 8.69993 21.3881 8.67473 21.6126 8.66968C21.7268 8.66578 21.8514 8.66448 22.002 8.66388C22.1551 8.66328 22.3382 8.66388 22.6011 8.66388H23.9927H24.448C24.5945 8.66388 24.7564 8.66388 24.9034 8.66758C25.2072 8.66838 25.5098 8.70721 25.804 8.78318C26.1387 8.87295 26.4501 9.03365 26.7172 9.25438C26.9843 9.47511 27.2009 9.75071 27.3521 10.0625C27.4943 10.3634 27.581 10.6874 27.6082 11.0191C27.6236 11.1772 27.6292 11.3355 27.6314 11.5191C27.6336 11.6869 27.6331 11.9486 27.6331 12.3042V13.6969C27.6331 13.9597 27.6331 14.1427 27.6326 14.2957C27.6319 14.4462 27.6306 14.5709 27.6267 14.6852C27.6216 14.9096 27.5964 15.1332 27.5513 15.3531C27.5031 15.5825 27.4235 15.8042 27.3147 16.0119C27.0881 16.4414 26.7371 16.7924 26.3076 17.0189C26.1 17.1277 25.8783 17.2073 25.649 17.2556C25.429 17.3006 25.2055 17.3258 24.981 17.3308C24.8667 17.3348 24.742 17.3362 24.5916 17.3367C24.4383 17.3373 24.2554 17.3367 23.9925 17.3367H22.6011C22.2454 17.3367 21.9837 17.3367 21.816 17.335C21.6324 17.3327 21.4742 17.3271 21.316 17.3118C20.9843 17.2848 20.6602 17.198 20.3594 17.0556C20.1172 16.9383 19.8964 16.7814 19.7061 16.5912C19.4066 16.2906 19.1909 15.917 19.0801 15.5075C19.0041 15.2133 18.9653 14.9107 18.9644 14.6069C18.9607 14.46 18.9607 14.2981 18.9607 14.1515C18.9607 13.9999 18.9607 13.8486 18.9607 13.6965V12.3038C18.9607 12.0409 18.9605 11.8579 18.961 11.705H18.9612ZM37.2969 45.6921C37.2639 46.3351 36.9776 46.939 36.5006 47.3715C36.0236 47.804 35.3947 48.0301 34.7515 48.0002H21.8423C21.1991 48.0301 20.5702 47.804 20.0932 47.3715C19.6162 46.939 19.3299 46.3351 19.2969 45.6921V24.3133C19.3299 23.6688 19.6169 23.0637 20.0949 22.6302C20.573 22.1967 21.2033 21.9702 21.8479 22.0002H34.7517C35.3949 21.9703 36.0237 22.1963 36.5006 22.6289C36.9776 23.0614 37.2639 23.6652 37.2969 24.3082V45.6921Z" fill="#1D1D1F"/>
</g>
<defs>
<clipPath id="clip0_0_1145">
<rect width="40" height="54" fill="white" transform="translate(0.296875)"/>
</clipPath>
</defs>
</svg>
