<svg width="40" height="54" viewBox="0 0 40 54" fill="none" xmlns="http://www.w3.org/2000/svg">
<g clip-path="url(#clip0_0_1132)">
<path d="M27.4547 39.8356C28.3057 40.0616 29.1836 40.1703 30.064 40.1589V48.5867C30.0372 48.9427 29.8876 49.2782 29.6407 49.536C29.3938 49.7937 29.065 49.9577 28.7106 49.9998H27.1624C26.7642 49.9563 26.3967 49.7654 26.1322 49.4646C25.8678 49.1637 25.7254 48.7748 25.7333 48.3743V39.1843C26.2925 39.4383 26.8675 39.6558 27.4547 39.8356ZM25.7333 38.0885C24.4791 37.4492 23.3559 36.5804 22.4219 35.5271C21.483 34.5042 20.917 33.1941 20.8158 31.8092C20.7734 30.6334 21.0506 29.468 21.6181 28.4372C22.1024 27.6459 22.7686 26.9816 23.5612 26.4995C24.3539 26.0173 25.2502 25.7313 26.1756 25.6651C26.2216 25.6651 26.2678 25.6659 26.3144 25.6674C27.7063 25.7134 31.0696 26.0262 34.0903 30.0264C33.9269 30.0326 33.764 30.0471 33.6022 30.0699C32.7918 30.2063 32.0193 30.5123 31.3354 30.9679C30.6515 31.4236 30.0716 32.0186 29.6337 32.714C28.7951 34.0085 28.3647 35.5249 28.3983 37.0668C28.4062 37.2947 28.435 37.5213 28.4842 37.7439C28.5966 38.2344 28.7998 38.6996 29.0835 39.1152C28.6308 39.0819 28.1828 39.0028 27.7461 38.879C27.0544 38.6717 26.3812 38.4073 25.7333 38.0885ZM26.7989 31.7555C26.9919 31.8881 27.2248 31.9501 27.4583 31.931C27.6917 31.9119 27.9114 31.8129 28.0804 31.6506L28.1384 31.5782C28.2446 31.4653 28.3226 31.3288 28.3661 31.1799C28.4095 31.0311 28.4171 30.874 28.3883 30.7217C28.3595 30.5693 28.2951 30.4259 28.2003 30.3032C28.1056 30.1804 27.9831 30.0818 27.843 30.0154L26.333 29.0436C26.1225 28.8969 25.8689 28.8251 25.6127 28.84C25.3566 28.8548 25.1129 28.9553 24.9208 29.1253L24.8359 29.2077C24.7479 29.3154 24.684 29.4407 24.6487 29.5752C24.6134 29.7096 24.6073 29.8501 24.631 29.9871C24.6548 30.1241 24.7076 30.2544 24.7861 30.3692C24.8646 30.484 24.9668 30.5805 25.0859 30.6523L26.7989 31.7555ZM38.5334 35.951C38.4946 36.1529 38.4421 36.352 38.3763 36.5467C38.2155 37.0089 38.002 37.451 37.7399 37.8641C37.4253 38.4193 37.0242 38.9208 36.5519 39.3498C36.163 39.7364 35.6995 40.0397 35.1895 40.2411C34.6795 40.4425 34.1338 40.5379 33.5858 40.5213C32.9564 40.5227 32.3315 40.4162 31.7382 40.2064C31.664 40.1717 31.6059 40.1374 31.5361 40.1028C31.2543 39.9655 30.9812 39.8108 30.7186 39.6396C30.5003 39.4975 30.2949 39.3365 30.1048 39.1584C30.0904 39.1447 30.078 39.1309 30.0641 39.1171C29.6331 38.6949 29.3368 38.1545 29.2127 37.5641C29.1821 37.4288 29.1618 37.2914 29.1519 37.153C28.9953 35.3309 30.0896 31.4296 33.7285 30.8089C33.9567 30.7688 34.188 30.748 34.4198 30.7468C34.4872 30.7468 34.5588 30.7579 34.628 30.7621C34.8932 30.7741 35.1556 30.822 35.408 30.9045C35.4554 30.921 35.4969 30.9479 35.5434 30.9657C35.791 31.0582 36.0308 31.1705 36.2604 31.3015C36.9998 31.7278 37.6105 32.3456 38.0282 33.0898C38.2925 33.5785 38.4724 34.1082 38.5605 34.6566C38.6205 35.0868 38.6113 35.5238 38.5334 35.951ZM37.2297 35.171C37.081 34.6823 36.5179 34.693 36.1673 35.171L34.4249 37.5724C34.1582 38.0717 34.36 38.6774 34.8275 38.6348H34.8286C35.5626 38.416 36.2003 37.9537 36.6367 37.3242C37.0731 36.6947 37.2822 35.9354 37.2297 35.1712V35.171ZM9.77968 40.1587V48.5865C9.80643 48.9425 9.95606 49.2781 10.203 49.5359C10.4499 49.7937 10.7787 49.9577 11.1332 49.9998H12.6813C13.0795 49.9564 13.447 49.7654 13.7114 49.4646C13.9759 49.1637 14.1182 48.7748 14.1104 48.3743V39.1843C13.5512 39.4381 12.9762 39.6555 12.3891 39.8352C11.5381 40.0613 10.6602 40.1702 9.77978 40.1589L9.77968 40.1587ZM18.2254 28.437C18.7928 29.4678 19.0701 30.6332 19.0277 31.809C18.9265 33.1939 18.3607 34.5041 17.4219 35.5271C16.488 36.5805 15.3648 37.4493 14.1106 38.0885C13.4627 38.4072 12.7894 38.6714 12.0977 38.8785C11.6602 39.0024 11.2112 39.0816 10.7577 39.1148C11.0429 38.6997 11.247 38.2344 11.3594 37.7434C11.4086 37.5208 11.4373 37.2942 11.4453 37.0663C11.4787 35.5246 11.0483 34.0083 10.2099 32.714C9.77203 32.0187 9.19221 31.4237 8.50839 30.968C7.82458 30.5123 7.05221 30.2062 6.24188 30.0698C6.08002 30.0471 5.91711 30.0325 5.75378 30.0263C8.77448 26.0263 12.1378 25.7133 13.5297 25.6673C13.5764 25.6658 13.6223 25.665 13.6685 25.665C14.5938 25.7313 15.49 26.0174 16.2825 26.4996C17.0751 26.9817 17.7412 27.646 18.2255 28.4372L18.2254 28.437ZM15.0081 29.207L14.9232 29.1246C14.7311 28.9546 14.4874 28.8541 14.2312 28.8393C13.9751 28.8244 13.7214 28.8962 13.511 29.0429L12.001 30.0147C11.8609 30.0812 11.7384 30.1797 11.6436 30.3025C11.5489 30.4252 11.4845 30.5686 11.4556 30.721C11.4268 30.8733 11.4345 31.0303 11.4779 31.1792C11.5213 31.3281 11.5993 31.4646 11.7055 31.5775L11.7636 31.6499C11.9325 31.8122 12.1522 31.9112 12.3857 31.9303C12.6191 31.9494 12.852 31.8874 13.0451 31.7548L14.7589 30.6516C14.8778 30.5798 14.9798 30.4832 15.0582 30.3684C15.1365 30.2537 15.1893 30.1235 15.2129 29.9866C15.2366 29.8497 15.2305 29.7093 15.1952 29.5749C15.1599 29.4405 15.0961 29.3153 15.0082 29.2077L15.0081 29.207ZM9.77968 39.117C9.76578 39.1308 9.75338 39.1445 9.73898 39.1582C9.54886 39.3363 9.34347 39.4973 9.12518 39.6394C8.8625 39.8106 8.58944 39.9653 8.30758 40.1026C8.23758 40.1372 8.17978 40.1715 8.10558 40.2062C7.51223 40.416 6.88731 40.5225 6.25798 40.5211C5.70993 40.5377 5.16427 40.4423 4.6543 40.241C4.14433 40.0396 3.68075 39.7364 3.29188 39.3498C2.81945 38.9207 2.41839 38.4191 2.10378 37.8638C1.84167 37.4507 1.62812 37.0086 1.46738 36.5464C1.40155 36.3517 1.34906 36.1526 1.31028 35.9507C1.23231 35.5234 1.22316 35.0864 1.28318 34.6562C1.37131 34.1079 1.5513 33.5783 1.81558 33.0898C2.23341 32.3456 2.84427 31.7279 3.58378 31.3018C3.81314 31.1709 4.05272 31.0587 4.30018 30.9663C4.34698 30.9484 4.38868 30.9214 4.43618 30.9048C4.68854 30.8223 4.95093 30.7744 5.21618 30.7624C5.28538 30.7582 5.35698 30.7471 5.42438 30.7471C5.65615 30.7483 5.8874 30.7691 6.11568 30.8092C9.75458 31.4299 10.8489 35.3312 10.6923 37.1533C10.6824 37.2917 10.662 37.4291 10.6315 37.5644C10.5072 38.1549 10.2109 38.6953 9.77978 39.1175L9.77968 39.117ZM5.41888 37.5724L3.67648 35.1712C3.32588 34.6932 2.76278 34.6825 2.61408 35.1712C2.56367 35.5458 2.58844 35.9266 2.68695 36.2915C2.78545 36.6563 2.95571 36.9979 3.18778 37.2961C3.38445 37.6325 3.64813 37.9249 3.96248 38.1552C4.27683 38.3855 4.63513 38.5488 5.01518 38.6348H5.01618C5.48378 38.6774 5.68558 38.0717 5.41888 37.5724Z" fill="#1D1D1F"/>
</g>
<defs>
<clipPath id="clip0_0_1132">
<rect width="39" height="54" fill="white" transform="translate(0.421875)"/>
</clipPath>
</defs>
</svg>
