<svg width="31" height="54" viewBox="0 0 31 54" fill="none" xmlns="http://www.w3.org/2000/svg">
<g clip-path="url(#clip0_0_1138)">
<path d="M15.125 22.5C12.4055 22.5 9.74708 23.3064 7.48591 24.8173C5.22473 26.3282 3.46236 28.4756 2.42165 30.9881C1.38095 33.5006 1.10865 36.2653 1.6392 38.9325C2.16975 41.5997 3.47931 44.0497 5.40228 45.9727C7.32525 47.8957 9.77527 49.2053 12.4425 49.7358C15.1097 50.2663 17.8744 49.994 20.3869 48.9533C22.8994 47.9126 25.0468 46.1503 26.5577 43.8891C28.0686 41.6279 28.875 38.9695 28.875 36.25C28.875 32.6033 27.4263 29.1059 24.8477 26.5273C22.2691 23.9487 18.7717 22.5 15.125 22.5ZM15.125 48.35C12.7318 48.35 10.3924 47.6403 8.4026 46.3108C6.41276 44.9812 4.86188 43.0915 3.94606 40.8805C3.03024 38.6695 2.79062 36.2366 3.2575 33.8894C3.72438 31.5422 4.87679 29.3862 6.56901 27.694C8.26122 26.0018 10.4172 24.8494 12.7644 24.3825C15.1116 23.9156 17.5445 24.1552 19.7555 25.0711C21.9665 25.9869 23.8562 27.5378 25.1858 29.5276C26.5153 31.5174 27.225 33.8568 27.225 36.25C27.2213 39.458 25.9453 42.5335 23.6769 44.8019C21.4085 47.0703 18.333 48.3463 15.125 48.35ZM15.125 25.25C12.9494 25.25 10.8227 25.8951 9.01373 27.1038C7.20479 28.3125 5.79489 30.0305 4.96232 32.0405C4.12976 34.0505 3.91192 36.2622 4.33636 38.396C4.7608 40.5298 5.80845 42.4898 7.34682 44.0282C8.8852 45.5666 10.8452 46.6142 12.979 47.0386C15.1128 47.4631 17.3245 47.2452 19.3345 46.4127C21.3445 45.5801 23.0625 44.1702 24.2712 42.3613C25.4799 40.5523 26.125 38.4256 26.125 36.25C26.125 34.8055 25.8405 33.3751 25.2877 32.0405C24.7349 30.7059 23.9246 29.4933 22.9032 28.4718C21.8817 27.4504 20.6691 26.6401 19.3345 26.0873C17.9999 25.5345 16.5695 25.25 15.125 25.25ZM15.599 31.506C15.7646 31.3037 15.9711 31.1386 16.205 31.0216C16.4388 30.9046 16.6948 30.8383 16.956 30.827C16.9773 31.0896 16.9454 31.3538 16.8622 31.6038C16.779 31.8538 16.6463 32.0845 16.472 32.282C16.3204 32.4993 16.1168 32.6752 15.8798 32.7936C15.6427 32.9121 15.3798 32.9693 15.115 32.96C15.0903 32.6973 15.1206 32.4324 15.2039 32.182C15.2872 31.9317 15.4218 31.7015 15.599 31.506ZM18.253 38.984C17.877 39.558 17.446 40.136 16.811 40.136C16.211 40.136 16.003 39.748 15.306 39.748C14.557 39.748 14.33 40.136 13.757 40.136C13.122 40.136 12.688 39.527 12.291 38.959C11.695 38.0579 11.3632 37.0079 11.333 35.928C11.3062 35.3453 11.4405 34.7665 11.721 34.255C11.9171 33.9079 12.1976 33.616 12.5365 33.4062C12.8755 33.1965 13.2619 33.0757 13.66 33.055C14.269 33.034 14.791 33.491 15.16 33.491C15.7454 33.2992 16.3449 33.1534 16.953 33.055C17.2908 33.0538 17.6236 33.1375 17.9206 33.2984C18.2177 33.4593 18.4695 33.6923 18.653 33.976C18.3469 34.1693 18.0941 34.4362 17.9179 34.7524C17.7416 35.0686 17.6474 35.424 17.644 35.786C17.6546 36.1847 17.7777 36.5722 17.9993 36.9039C18.2208 37.2355 18.5317 37.4976 18.896 37.66C18.7514 38.1319 18.5345 38.5786 18.253 38.984Z" fill="#1D1D1F"/>
</g>
<defs>
<clipPath id="clip0_0_1138">
<rect width="29" height="54" fill="white" transform="translate(0.625)"/>
</clipPath>
</defs>
</svg>
