<svg width="14" height="16" viewBox="0 0 14 16" fill="none" xmlns="http://www.w3.org/2000/svg">
<path d="M13.0729 5.4325C12.9799 5.5048 11.3481 6.424 11.3481 8.4689C11.3481 10.834 13.424 11.6706 13.486 11.6912C13.4757 11.7428 13.1555 12.8376 12.3912 13.953C11.7096 14.9342 10.9969 15.9153 9.91251 15.9153C8.82811 15.9153 8.54921 15.2853 7.29951 15.2853C6.08081 15.2853 5.64701 15.936 4.65551 15.936C3.66401 15.936 2.97201 15.0271 2.17681 13.9117C1.25761 12.6 0.514008 10.5654 0.514008 8.6341C0.514008 5.5357 2.52801 3.8935 4.51091 3.8935C5.56441 3.8935 6.44221 4.5855 7.10321 4.5855C7.73321 4.5855 8.71441 3.8522 9.91241 3.8522C10.3669 3.8523 11.9988 3.8937 13.0729 5.4325V5.4325ZM9.34451 2.5407C9.84021 1.952 10.1914 1.1361 10.1914 0.3202C10.1914 0.2066 10.1811 0.093 10.1604 0C9.35481 0.031 8.39431 0.537101 7.81591 1.2084C7.36151 1.7248 6.93801 2.5407 6.93801 3.367C6.93801 3.4909 6.95871 3.6149 6.96901 3.6562C7.02061 3.6665 7.10331 3.6769 7.18591 3.6769C7.90891 3.6768 8.81771 3.1914 9.34451 2.5407V2.5407Z" fill="white"/>
</svg>
