<svg width="14" height="14" viewBox="0 0 14 14" fill="none" xmlns="http://www.w3.org/2000/svg">
<path d="M13.1988 12.3741L9.69876 8.87408C10.5805 7.79425 11.0136 6.41696 10.9087 5.02685C10.8037 3.63673 10.1688 2.34006 9.13497 1.40482C8.10117 0.469575 6.74757 -0.0327502 5.35393 0.00165776C3.96028 0.0360657 2.63312 0.604578 1.64674 1.5897C0.660347 2.57482 0.0901289 3.90125 0.0539285 5.29484C0.0177281 6.68844 0.518313 8.04268 1.45223 9.07768C2.38614 10.1127 3.68199 10.7493 5.07197 10.856C6.46195 10.9628 7.8398 10.5314 8.92076 9.65108L12.4208 13.1511C12.4718 13.2022 12.5325 13.2427 12.5992 13.2703C12.666 13.298 12.7375 13.3122 12.8098 13.3122C12.882 13.3122 12.9535 13.298 13.0203 13.2703C13.087 13.2427 13.1477 13.2022 13.1988 13.1511C13.2498 13.1 13.2904 13.0394 13.318 12.9726C13.3457 12.9059 13.3599 12.8343 13.3599 12.7621C13.3599 12.6898 13.3457 12.6183 13.318 12.5516C13.2904 12.4848 13.2498 12.4242 13.1988 12.3731V12.3741ZM1.17776 5.44908C1.17796 4.59491 1.43143 3.75997 1.90613 3.04985C2.38083 2.33972 3.05543 1.7863 3.84464 1.45956C4.63385 1.13282 5.50223 1.04743 6.33997 1.21419C7.1777 1.38096 7.94718 1.79238 8.55111 2.39644C9.15503 3.00051 9.56627 3.77008 9.73284 4.60786C9.89941 5.44563 9.81382 6.31399 9.4869 7.10312C9.15997 7.89226 8.6064 8.56674 7.89616 9.04127C7.18593 9.5158 6.35093 9.76908 5.49676 9.76908C4.35144 9.76802 3.25335 9.31251 2.44358 8.50255C1.63381 7.6926 1.17855 6.5944 1.17776 5.44908V5.44908Z" fill="white"/>
</svg>
