<svg width="59" height="54" viewBox="0 0 59 54" fill="none" xmlns="http://www.w3.org/2000/svg">
<g clip-path="url(#clip0_0_1167)">
<path d="M50.0675 47.5001C50.0675 47.7236 50.0012 47.9421 49.8771 48.1279C49.7529 48.3137 49.5764 48.4586 49.3699 48.5441C49.1635 48.6296 48.9362 48.652 48.717 48.6084C48.4978 48.5648 48.2965 48.4572 48.1385 48.2991C47.9804 48.1411 47.8728 47.9397 47.8292 47.7205C47.7856 47.5013 47.808 47.2741 47.8935 47.0677C47.979 46.8612 48.1239 46.6847 48.3097 46.5605C48.4955 46.4364 48.714 46.3701 48.9375 46.3701C49.2371 46.3704 49.5243 46.4896 49.7361 46.7014C49.948 46.9133 50.0672 47.2005 50.0675 47.5001ZM58.4375 13.0001V47.0001C58.4375 47.7957 58.1214 48.5588 57.5588 49.1214C56.9962 49.684 56.2332 50.0001 55.4375 50.0001H42.4375C41.6916 49.9983 40.9735 49.7168 40.425 49.2113C40.5835 49.0067 40.7231 48.7882 40.8423 48.5585C41.0423 48.1624 41.1855 47.74 41.2676 47.3039C41.3713 46.689 41.4161 46.0655 41.4014 45.4421V45.0001H57.4375V15.0001H41.4016V11.6049V11.3091C41.4003 10.9374 41.3872 10.5717 41.3593 10.2082C41.7027 10.0726 42.0683 10.002 42.4375 10.0001H55.4375C56.2332 10.0001 56.9962 10.3162 57.5588 10.8788C58.1214 11.4414 58.4375 12.2044 58.4375 13.0001ZM45.3125 12.5001C45.3125 12.4259 45.2905 12.3534 45.2493 12.2918C45.2081 12.2301 45.1495 12.182 45.081 12.1536C45.0125 12.1253 44.9371 12.1178 44.8643 12.1323C44.7916 12.1468 44.7248 12.1825 44.6723 12.2349C44.6199 12.2874 44.5842 12.3542 44.5697 12.4269C44.5552 12.4997 44.5627 12.5751 44.591 12.6436C44.6194 12.7121 44.6675 12.7707 44.7292 12.8119C44.7908 12.8531 44.8633 12.8751 44.9375 12.8751C45.0369 12.8751 45.1323 12.8356 45.2026 12.7652C45.273 12.6949 45.3125 12.5995 45.3125 12.5001ZM51.4375 12.5001C51.4373 12.4338 51.4109 12.3704 51.3641 12.3235C51.3172 12.2767 51.2537 12.2503 51.1875 12.2501H46.6875C46.6212 12.2501 46.5576 12.2764 46.5107 12.3233C46.4638 12.3702 46.4375 12.4338 46.4375 12.5001C46.4375 12.5664 46.4638 12.63 46.5107 12.6769C46.5576 12.7238 46.6212 12.7501 46.6875 12.7501H51.1875C51.2537 12.7499 51.3172 12.7235 51.3641 12.6767C51.4109 12.6298 51.4373 12.5663 51.4375 12.5001ZM50.6875 47.5001C50.6875 47.154 50.5849 46.8156 50.3926 46.5278C50.2003 46.2401 49.927 46.0158 49.6072 45.8833C49.2874 45.7509 48.9356 45.7162 48.5961 45.7837C48.2566 45.8512 47.9448 46.0179 47.7001 46.2627C47.4553 46.5074 47.2887 46.8192 47.2211 47.1587C47.1536 47.4982 47.1883 47.85 47.3207 48.1698C47.4532 48.4896 47.6775 48.7629 47.9653 48.9552C48.253 49.1475 48.5914 49.2501 48.9375 49.2501C49.4016 49.2501 49.8467 49.0657 50.1749 48.7375C50.5031 48.4093 50.6875 47.9642 50.6875 47.5001ZM6.3689 13.2549C6.10277 13.4238 5.80304 13.5327 5.49056 13.574C5.17808 13.6153 4.86035 13.5881 4.55947 13.4941C4.25859 13.4002 3.98178 13.2419 3.7483 13.0301C3.51482 12.8184 3.33028 12.5583 3.2075 12.268C3.09145 11.9609 3.05 11.6307 3.08657 11.3045C3.12313 10.9782 3.23667 10.6654 3.41783 10.3916C3.59898 10.1178 3.84258 9.89103 4.12855 9.72985C4.41453 9.56866 4.7347 9.47772 5.0627 9.4645C5.52261 9.42247 5.98333 9.53589 6.37116 9.78663C6.75899 10.0374 7.05154 10.4109 7.202 10.8475C7.35247 11.2842 7.35216 11.7586 7.20113 12.1951C7.05009 12.6315 6.75706 13.0047 6.3689 13.2549ZM10.0464 12.0401C9.70052 12.0524 9.36323 12.1511 9.06528 12.3272C8.76733 12.5033 8.5182 12.7512 8.3406 13.0483C8.163 13.3453 8.06259 13.6821 8.04851 14.0279C8.03443 14.3737 8.10714 14.7176 8.26 15.0281C8.40352 15.2926 8.60016 15.5246 8.83758 15.7095C9.075 15.8944 9.34807 16.0283 9.63967 16.1027C9.93127 16.1771 10.2351 16.1904 10.5321 16.1418C10.8291 16.0932 11.1128 15.9837 11.3655 15.8203C11.7494 15.5673 12.0378 15.1935 12.1851 14.758C12.3324 14.3225 12.3302 13.8503 12.1787 13.4163C12.0272 12.9822 11.7352 12.6111 11.349 12.3619C10.9627 12.1126 10.5043 11.9993 10.0464 12.0401ZM5.1497 14.6201C4.81301 14.6193 4.48119 14.7006 4.18301 14.8569C3.88482 15.0133 3.62924 15.24 3.43842 15.5174C3.2476 15.7948 3.12729 16.1145 3.08791 16.4489C3.04852 16.7833 3.09125 17.1223 3.2124 17.4364C3.36836 17.7969 3.61967 18.1081 3.9393 18.3364C4.25892 18.5647 4.63476 18.7016 5.02637 18.7322C5.41797 18.7629 5.81052 18.6861 6.16177 18.5103C6.51302 18.3345 6.80967 18.0662 7.0198 17.7343C7.20904 17.4139 7.30822 17.0483 7.30686 16.6762C7.30551 16.3041 7.20367 15.9393 7.0121 15.6203C6.82054 15.3013 6.54636 15.04 6.21854 14.8639C5.89073 14.6879 5.52144 14.6036 5.1497 14.6201ZM19.0044 48.5589C19.1849 48.9068 19.4123 49.2283 19.6802 49.5143C19.3582 49.6658 19.0186 49.7767 18.6692 49.8443C18.2712 49.9162 17.868 49.9559 17.4636 49.9631C17.0923 49.9746 16.5999 49.9731 16.2092 49.9731H6.1492H5.7332C5.6226 49.9731 5.5126 49.9727 5.4032 49.9719C4.82897 49.982 4.25503 49.9394 3.6886 49.8445C3.30128 49.7724 2.9259 49.6466 2.5733 49.4708C1.87528 49.1202 1.30718 48.5562 0.9515 47.8608C0.77442 47.5114 0.647664 47.1387 0.575 46.7538C0.473247 46.1375 0.429922 45.5129 0.4456 44.8884C0.4456 44.7802 0.4456 44.6712 0.4456 44.5615V12.1885C0.4456 12.0786 0.4456 11.9696 0.4456 11.8615C0.430061 11.237 0.473521 10.6124 0.5754 9.996C0.648095 9.61113 0.77485 9.23847 0.9519 8.88909C1.30753 8.19362 1.87564 7.62964 2.5737 7.27909C2.92629 7.10328 3.30167 6.97747 3.689 6.90529C4.08709 6.83335 4.49033 6.79366 4.8948 6.78659C5.2661 6.77509 5.7585 6.7766 6.1492 6.7766H16.2092H16.6252C16.7352 6.7766 16.8452 6.77659 16.9546 6.77779C17.5288 6.76766 18.1028 6.8103 18.6692 6.90519C19.0186 6.97279 19.3582 7.08364 19.6802 7.23519C19.4123 7.52134 19.1849 7.84291 19.0044 8.19089C18.8043 8.58702 18.6611 9.00937 18.5789 9.4455C18.4753 10.0605 18.4306 10.684 18.4453 11.3075V11.6042V45.1442V45.4392C18.4305 46.0632 18.4752 46.6872 18.5789 47.3027C18.6609 47.7394 18.8041 48.1623 19.0044 48.5589ZM12.8244 12.5282C12.8244 12.2489 12.8244 12.0547 12.8239 11.8921C12.8239 11.7321 12.8219 11.5999 12.8178 11.4785C12.8123 11.2402 12.7855 11.0028 12.7378 10.7692C12.6865 10.5254 12.6019 10.2899 12.4864 10.0692C12.2458 9.61315 11.8729 9.24049 11.4167 9.00009C11.196 8.88457 10.9605 8.79998 10.7167 8.74869C10.4832 8.70084 10.2458 8.67406 10.0075 8.66869C9.8862 8.66449 9.7536 8.66299 9.5937 8.6624C9.4313 8.6618 9.237 8.6624 8.9577 8.6624H6.2185C5.9392 8.6624 5.7449 8.6624 5.5823 8.6624C5.4223 8.66299 5.29 8.66449 5.1687 8.66869C4.93012 8.67404 4.69249 8.70081 4.4587 8.74869C4.2153 8.80002 3.98012 8.88462 3.7598 9.00009C3.3036 9.24077 2.93082 9.61376 2.6904 10.0701C2.57491 10.2908 2.49032 10.5263 2.439 10.7701C2.39114 11.0037 2.36436 11.241 2.359 11.4794C2.3546 11.6008 2.3534 11.7332 2.3527 11.893V12.5291V15.6751V16.3111C2.3534 16.4711 2.3546 16.6033 2.359 16.7248C2.36437 16.9631 2.39114 17.2005 2.439 17.434C2.4903 17.6778 2.57489 17.9133 2.6904 18.134C2.93088 18.5901 3.30366 18.9629 3.7598 19.2033C3.98026 19.3189 4.21561 19.4035 4.4592 19.4547C4.69299 19.5026 4.93062 19.5293 5.1692 19.5347C5.2905 19.5389 5.4229 19.5403 5.5828 19.541C5.7454 19.5416 5.9397 19.541 6.219 19.541H8.959H9.595C9.755 19.5403 9.8875 19.5389 10.0088 19.5347C10.2471 19.5293 10.4845 19.5025 10.718 19.4547C10.9618 19.4035 11.1973 19.3189 11.418 19.2033C11.8741 18.9629 12.2469 18.5901 12.4874 18.134C12.6029 17.9133 12.6875 17.6778 12.7388 17.434C12.7865 17.2004 12.8133 16.9631 12.8188 16.7248C12.8229 16.6033 12.8244 16.471 12.8249 16.3111C12.8254 16.1486 12.8254 15.9543 12.8254 15.6751L12.8244 12.5282ZM20.1667 48.5482C20.0649 48.4078 19.9744 48.2597 19.8959 48.1051C19.8169 47.9496 19.7496 47.7885 19.6945 47.6231C19.7496 47.7886 19.8169 47.9497 19.8959 48.1052C19.9743 48.2597 20.0647 48.4078 20.1663 48.5481L20.1667 48.5482ZM24.302 7.75009H24.4194H24.5286H35.3281H35.6968L35.9849 7.75109C36.4341 7.7425 36.8832 7.77453 37.3267 7.8468C37.5808 7.89376 37.827 7.97623 38.0581 8.09179C38.4925 8.31156 38.8452 8.66439 39.0649 9.09879C39.1805 9.32974 39.2629 9.57583 39.3098 9.8298C39.3875 10.3213 39.4198 10.819 39.4063 11.3165V11.6047V44.9201V45.4348C39.4198 45.9317 39.3875 46.4287 39.3098 46.9197C39.2629 47.1738 39.1804 47.4201 39.0647 47.6512C38.8449 48.0857 38.492 48.4386 38.0575 48.6583C37.8266 48.7738 37.5806 48.8562 37.3267 48.9031C37.0253 48.9575 36.7199 48.9871 36.4137 48.9916C36.1607 48.9995 35.8426 49.0001 35.5537 49.0001H35.4375H35.3283H24.5286H24.1586L23.8715 48.9991C23.4221 49.0077 22.9728 48.9757 22.5292 48.9033C22.2754 48.8564 22.0294 48.774 21.7985 48.6585C21.364 48.4388 21.0111 48.0859 20.7914 47.6514C20.6759 47.4204 20.5935 47.1744 20.5466 46.9204C20.4687 46.43 20.4364 45.9335 20.4501 45.4372V45.1455V11.6055V11.3155C20.4364 10.8184 20.4688 10.3212 20.5469 9.83009C20.5938 9.57598 20.6762 9.32973 20.7917 9.0986C21.0116 8.66452 21.3642 8.31192 21.7983 8.09209C22.0294 7.97657 22.2755 7.8941 22.5295 7.8471C22.8309 7.79271 23.1363 7.76311 23.4426 7.75859C23.6956 7.75069 24.0137 7.75009 24.302 7.75009ZM24.302 6.75009C24.0032 6.75009 23.6736 6.75089 23.412 6.75909C23.0515 6.76541 22.6922 6.80103 22.3375 6.86559C21.9924 6.93044 21.6581 7.0433 21.3443 7.20089C20.7219 7.51671 20.2162 8.02256 19.9006 8.6451C19.743 8.95886 19.6302 9.29313 19.5654 9.63819C19.4747 10.1912 19.4362 10.7515 19.4504 11.3117C19.45 11.4087 19.45 11.5064 19.4504 11.6049V45.1449V45.4382C19.4362 45.9984 19.4747 46.5586 19.5654 47.1116C19.6302 47.4567 19.743 47.7909 19.9006 48.1047C20.2163 48.7273 20.7221 49.2332 21.3447 49.5489C21.6585 49.7065 21.9928 49.8194 22.3379 49.8842C22.8422 49.9693 23.3533 50.0076 23.8647 49.9985C23.9619 49.9991 24.0597 49.9994 24.158 49.9995H24.5286H35.3281H35.5544C35.8533 49.9995 36.1831 49.9987 36.4451 49.9905C36.8053 49.9841 37.1644 49.9485 37.5188 49.884C37.8638 49.8193 38.1981 49.7064 38.5117 49.5487C39.1344 49.2331 39.6404 48.7272 39.9561 48.1045C40.1137 47.7907 40.2265 47.4565 40.2913 47.1114C40.3818 46.5584 40.4203 45.9982 40.4063 45.438V44.9208V11.6049C40.4063 11.5064 40.4063 11.4086 40.4063 11.3117C40.4203 10.7515 40.3818 10.1912 40.2913 9.63819C40.2265 9.29313 40.1137 8.95886 39.9561 8.6451C39.6404 8.02239 39.1344 7.51651 38.5117 7.20089C38.198 7.04325 37.8638 6.93039 37.5188 6.86559C37.0144 6.78052 36.5033 6.74226 35.9919 6.7513C35.8948 6.7507 35.797 6.75036 35.6987 6.75029H35.3281H24.5286H24.302V6.75009ZM32.0313 8.2601H27.8586C27.6179 8.26261 27.3879 8.35999 27.2186 8.53108C27.0493 8.70217 26.9544 8.93315 26.9544 9.17384C26.9544 9.41454 27.0493 9.64552 27.2186 9.81661C27.3879 9.9877 27.6179 10.0851 27.8586 10.0876H32.0313C32.1521 10.0889 32.272 10.0662 32.3839 10.0208C32.4959 9.97545 32.5978 9.90834 32.6836 9.82337C32.7695 9.73839 32.8377 9.63724 32.8842 9.52575C32.9307 9.41426 32.9547 9.29465 32.9547 9.17384C32.9547 9.05304 32.9307 8.93343 32.8842 8.82194C32.8377 8.71045 32.7695 8.6093 32.6836 8.52432C32.5978 8.43935 32.4959 8.37224 32.3839 8.32689C32.272 8.28153 32.1521 8.25883 32.0313 8.2601ZM32.0835 9.6238C31.9945 9.6238 31.9075 9.5974 31.8335 9.54796C31.7595 9.49851 31.7018 9.42823 31.6678 9.346C31.6337 9.26378 31.6248 9.1733 31.6421 9.086C31.6595 8.99871 31.7024 8.91853 31.7653 8.8556C31.8282 8.79266 31.9084 8.7498 31.9957 8.73244C32.083 8.71508 32.1735 8.72399 32.2557 8.75805C32.3379 8.79211 32.4082 8.84979 32.4577 8.92379C32.5071 8.99779 32.5335 9.08479 32.5335 9.1738C32.5335 9.2329 32.5219 9.29143 32.4993 9.34603C32.4767 9.40064 32.4435 9.45026 32.4017 9.49206C32.3599 9.53385 32.3103 9.56701 32.2557 9.58963C32.2011 9.61225 32.1426 9.6239 32.0835 9.6239V9.6238Z" fill="#1D1D1F"/>
</g>
<defs>
<clipPath id="clip0_0_1167">
<rect width="58" height="54" fill="white" transform="translate(0.4375)"/>
</clipPath>
</defs>
</svg>
